<?xml version="1.0" encoding="utf-8"?>
<!-- Svg Vector Icons : http://www.onlinewebfonts.com/icon -->
<!DOCTYPE svg PUBLIC "-//W3C//DTD SVG 1.1//EN" "http://www.w3.org/Graphics/SVG/1.1/DTD/svg11.dtd">
<svg version="1.1" xmlns="http://www.w3.org/2000/svg" xmlns:xlink="http://www.w3.org/1999/xlink" x="0px" y="0px" viewBox="0 0 1000 1000" enable-background="new 0 0 1000 1000" xml:space="preserve">
<metadata> Svg Vector Icons : http://www.onlinewebfonts.com/icon </metadata>
<g><path d="M70.1,611.1L247,405.9l226.4,84.9c35.4,14.1,49.5,7.1,49.5,0l396.2-346.7v63.7c0,21.2,14.2,35.4,35.4,35.4S990,229,990,207.8V66.2c0-21.2-14.2-35.4-35.4-35.4H813.1c-21.2,0-35.4,14.1-35.4,35.4c0,21.2,14.2,35.4,35.4,35.4h49.5L494.7,413c0,0-191-70.8-226.4-84.9c-21.2-7.1-35.4-14.1-49.5,0L20.6,554.5c-14.1,14.2-14.1,42.5,0,56.6C34.8,618.2,56,618.2,70.1,611.1L70.1,611.1z"/><path d="M118.5,930.5c0,21.3-18.6,38.6-41.5,38.6H63.2c-22.9,0-41.5-17.3-41.5-38.6V686c0-21.3,18.6-38.6,41.5-38.6h13.8c22.9,0,41.5,17.3,41.5,38.6V930.5z"/><path d="M550,930.5c0,21.3-18.6,38.6-41.5,38.6h-13.8c-22.9,0-41.5-17.3-41.5-38.6V621.7c0-21.3,18.6-38.6,41.5-38.6h13.8c22.9,0,41.5,17.3,41.5,38.6V930.5z"/><path d="M334.2,930.5c0,21.3-18.6,38.6-41.5,38.6H279c-22.9,0-41.5-17.3-41.5-38.6V557.4c0-21.3,18.6-38.6,41.5-38.6h13.8c22.9,0,41.5,17.3,41.5,38.6V930.5z"/><path d="M765.7,930.5c0,21.3-18.6,38.6-41.5,38.6h-13.8c-22.9,0-41.5-17.3-41.5-38.6V493c0-21.3,18.6-38.6,41.5-38.6h13.8c22.9,0,41.5,17.3,41.5,38.6V930.5z"/><path d="M981.4,930.5c0,21.3-18.6,38.6-41.5,38.6h-13.8c-22.9,0-41.5-17.3-41.5-38.6V428.7c0-21.3,18.6-38.6,41.5-38.6H940c22.9,0,41.5,17.3,41.5,38.6V930.5z"/></g>
</svg>